<svg xmlns="http://www.w3.org/2000/svg" viewBox="0 0 1600 900" fill="none">
  <defs>
    <linearGradient id="bg2" x1="0" y1="0" x2="1600" y2="900" gradientUnits="userSpaceOnUse">
      <stop stop-color="#081A33" />
      <stop offset="1" stop-color="#050F1F" />
    </linearGradient>
    <radialGradient id="glowC" cx="0" cy="0" r="1" gradientUnits="userSpaceOnUse" gradientTransform="translate(1220 220) rotate(140) scale(520 340)">
      <stop stop-color="#4D8EFF" stop-opacity=".4" />
      <stop offset="1" stop-color="#4D8EFF" stop-opacity="0" />
    </radialGradient>
    <radialGradient id="glowD" cx="0" cy="0" r="1" gradientUnits="userSpaceOnUse" gradientTransform="translate(360 220) rotate(30) scale(460 300)">
      <stop stop-color="#A7CBFF" stop-opacity=".24" />
      <stop offset="1" stop-color="#A7CBFF" stop-opacity="0" />
    </radialGradient>
  </defs>
  <rect width="1600" height="900" fill="url(#bg2)" />
  <rect width="1600" height="900" fill="url(#glowC)" />
  <rect width="1600" height="900" fill="url(#glowD)" />
  <rect x="160" y="140" width="1280" height="620" rx="34" fill="#0A2A50" fill-opacity=".52" stroke="#9FC5FF" stroke-opacity=".3" />
  <rect x="220" y="214" width="500" height="44" rx="10" fill="#EAF2FF" fill-opacity=".14" />
  <rect x="220" y="282" width="420" height="30" rx="9" fill="#EAF2FF" fill-opacity=".11" />
  <rect x="220" y="334" width="380" height="20" rx="7" fill="#EAF2FF" fill-opacity=".09" />
  <rect x="220" y="370" width="330" height="20" rx="7" fill="#EAF2FF" fill-opacity=".09" />
  <rect x="820" y="230" width="540" height="340" rx="20" fill="#092544" stroke="#8BB8FF" stroke-opacity=".35" />
  <path d="M900 500V360m120 140V320m120 180V390m120 110V290" stroke="#7FB2FF" stroke-width="20" stroke-linecap="round" />
  <circle cx="900" cy="360" r="13" fill="#DCEBFF" />
  <circle cx="1020" cy="320" r="13" fill="#DCEBFF" />
  <circle cx="1140" cy="390" r="13" fill="#DCEBFF" />
  <circle cx="1260" cy="290" r="13" fill="#DCEBFF" />
  <text x="220" y="520" fill="#DDEBFF" fill-opacity=".94" font-family="Inter, Arial, sans-serif" font-size="42" font-weight="700">SEO Automation Guide</text>
</svg>
