<svg viewBox="0 0 1200 900" xmlns="http://www.w3.org/2000/svg" role="img" aria-label="AI UGC Video Ads Dashboard">
  <defs>
    <linearGradient id="bg" x1="0" y1="0" x2="1" y2="1">
      <stop offset="0%" stop-color="#071528" />
      <stop offset="100%" stop-color="#0E2C58" />
    </linearGradient>
    <linearGradient id="glass" x1="0" y1="0" x2="1" y2="1">
      <stop offset="0%" stop-color="#FFFFFF" stop-opacity="0.18" />
      <stop offset="100%" stop-color="#C6E2FF" stop-opacity="0.02" />
    </linearGradient>
    <linearGradient id="metricGlow" x1="0" y1="0" x2="1" y2="1">
      <stop offset="0%" stop-color="#62B8FF" />
      <stop offset="100%" stop-color="#0F57FF" stop-opacity="0.72" />
    </linearGradient>
  </defs>
  <rect width="1200" height="900" rx="48" fill="url(#bg)" />
  <rect x="84" y="84" width="1032" height="732" rx="42" fill="rgba(255,255,255,0.05)" stroke="rgba(255,255,255,0.14)" stroke-width="2" />
  <rect x="118" y="118" width="964" height="132" rx="28" fill="#093051" />
  <rect x="140" y="148" width="220" height="18" rx="9" fill="#6BB4FF" />
  <rect x="140" y="180" width="160" height="10" rx="5" fill="#73AEFF" opacity="0.8" />
  <rect x="520" y="148" width="330" height="18" rx="9" fill="#142C58" />
  <rect x="540" y="178" width="130" height="10" rx="5" fill="#8EC9FF" />
  <rect x="926" y="148" width="120" height="40" rx="20" fill="#0D2F5C" />
  <text x="942" y="176" text-anchor="middle" font-family="Inter, Arial, sans-serif" font-size="16" fill="#DCEBFF">Live Campaign</text>
  <rect x="118" y="270" width="604" height="480" rx="34" fill="rgba(255,255,255,0.08)" stroke="rgba(255,255,255,0.12)" stroke-width="1.5" />
  <rect x="150" y="300" width="170" height="24" rx="12" fill="#0F3A6A" />
  <circle cx="180" cy="312" r="5" fill="#85C7FF" />
  <circle cx="200" cy="312" r="5" fill="#9FD9FF" />
  <circle cx="220" cy="312" r="5" fill="#5A96FF" />
  <rect x="150" y="340" width="325" height="20" rx="10" fill="#102E5C" />
  <rect x="150" y="368" width="320" height="340" rx="28" fill="#0D315E" />
  <rect x="162" y="384" width="134" height="134" rx="22" fill="#0F3A6F" />
  <circle cx="229" cy="451" r="26" fill="#4FAEFF" opacity="0.95" />
  <path d="M225 433 C 220 433, 218 439, 225 443 C 232 439, 230 433, 225 433 Z" fill="#081E3A" />
  <circle cx="229" cy="451" r="8" fill="#EAF4FF" />
  <rect x="162" y="532" width="254" height="24" rx="12" fill="#17375C" />
  <rect x="162" y="572" width="250" height="16" rx="8" fill="#1F4D8A" />
  <rect x="162" y="600" width="180" height="16" rx="8" fill="#4EA4FF" />
  <rect x="162" y="628" width="210" height="16" rx="8" fill="#2A69B8" />
  <rect x="162" y="660" width="196" height="16" rx="8" fill="#1D4F88" />
  <rect x="162" y="696" width="120" height="16" rx="8" fill="#5CB9FF" />
  <rect x="154" y="396" width="112" height="18" rx="9" fill="#235487" />
  <text x="220" y="413" text-anchor="middle" font-family="Inter, Arial, sans-serif" font-size="12" fill="#E3F1FF">AI Avatar</text>
  <rect x="358" y="384" width="254" height="286" rx="22" fill="#081A2F" />
  <rect x="384" y="414" width="194" height="134" rx="18" fill="#0F335F" />
  <rect x="410" y="444" width="136" height="90" rx="14" fill="#0B2245" />
  <rect x="426" y="470" width="82" height="12" rx="6" fill="#88C7FF" />
  <rect x="426" y="492" width="124" height="12" rx="6" fill="#5E9DFF" />
  <rect x="426" y="518" width="90" height="12" rx="6" fill="#4B84FF" />
  <path d="M380 560 L470 560 L510 590 L380 590 Z" fill="#112A53" />
  <path d="M370 694 L560 694" stroke="#2959A3" stroke-width="14" stroke-linecap="round" opacity="0.72" />
  <rect x="760" y="270" width="342" height="270" rx="32" fill="rgba(255,255,255,0.08)" stroke="rgba(255,255,255,0.12)" stroke-width="1.5" />
  <rect x="786" y="294" width="140" height="20" rx="10" fill="#112A54" />
  <rect x="786" y="330" width="262" height="130" rx="22" fill="#0F305F" />
  <rect x="814" y="360" width="220" height="20" rx="10" fill="#72B8FF" />
  <rect x="814" y="392" width="180" height="16" rx="8" fill="#4E91FF" />
  <rect x="814" y="422" width="210" height="16" rx="8" fill="#275CAA" />
  <path d="M790 470 H1040" stroke="#16406E" stroke-width="14" />
  <rect x="814" y="498" width="216" height="22" rx="11" fill="#0E2F58" />
  <rect x="832" y="502" width="88" height="12" rx="6" fill="#82CBFF" />
  <rect x="926" y="502" width="76" height="12" rx="6" fill="#3A7EFF" />
  <rect x="814" y="532" width="160" height="12" rx="6" fill="#4F97FF" />
  <rect x="814" y="556" width="85" height="12" rx="6" fill="#2A67D4" />
  <rect x="792" y="617" width="214" height="20" rx="10" fill="#12345E" />
  <rect x="812" y="625" width="96" height="12" rx="6" fill="#89D4FF" />
  <rect x="914" y="625" width="58" height="12" rx="6" fill="#4A8CFF" />
  <rect x="760" y="560" width="342" height="160" rx="28" fill="#061C3A" />
  <rect x="780" y="584" width="130" height="18" rx="9" fill="#62BCFF" />
  <rect x="780" y="616" width="194" height="12" rx="6" fill="#4D8EFF" />
  <rect x="780" y="642" width="240" height="12" rx="6" fill="#3672D3" />
  <path d="M780 680 C 820 650, 860 698, 900 670 S 960 740, 980 708" fill="none" stroke="#8CCBFF" stroke-width="14" stroke-linecap="round" />
  <rect x="118" y="770" width="964" height="82" rx="28" fill="#0E2B57" />
  <rect x="154" y="794" width="176" height="20" rx="10" fill="#0E3A6D" />
  <rect x="224" y="826" width="240" height="16" rx="8" fill="#61B6FF" />
  <rect x="564" y="794" width="176" height="20" rx="10" fill="#1A4E99" />
  <rect x="634" y="826" width="220" height="16" rx="8" fill="#8BC9FF" />
  <rect x="908" y="794" width="176" height="20" rx="10" fill="#08315A" />
  <rect x="978" y="826" width="142" height="16" rx="8" fill="#4A8BFF" />
  <rect x="924" y="184" width="156" height="18" rx="9" fill="#0A2E55" opacity="0.75" />
  <text x="1000" y="197" text-anchor="middle" font-family="Inter, Arial, sans-serif" font-size="11" fill="#C5D9FF" letter-spacing="0.08em">TikTok + Reels Preview</text>
  <rect x="912" y="206" width="96" height="140" rx="22" fill="#081D39" />
  <rect x="928" y="220" width="60" height="18" rx="9" fill="#62BFFF" />
  <rect x="930" y="256" width="52" height="16" rx="8" fill="#0D3160" />
  <rect x="930" y="280" width="52" height="52" rx="10" fill="#0F355F" />
  <circle cx="956" cy="306" r="18" fill="#8CCEFF" />
  <rect x="930" y="350" width="52" height="48" rx="12" fill="#0E2F56" />
  <path d="M928 406 L978 406" stroke="#1858B3" stroke-width="8" stroke-linecap="round" />
</svg>
