<svg viewBox="0 0 1200 900" xmlns="http://www.w3.org/2000/svg" role="img" aria-label="AI UGC workspace">
  <defs>
    <radialGradient id="workspaceGlow" cx="50%" cy="20%" r="70%">
      <stop offset="0%" stop-color="#4A97FF" stop-opacity="0.35" />
      <stop offset="100%" stop-color="#051336" stop-opacity="0" />
    </radialGradient>
  </defs>
  <rect width="1200" height="900" rx="44" fill="#081A36" />
  <circle cx="840" cy="200" r="110" fill="url(#workspaceGlow)" />
  <rect x="120" y="120" width="960" height="660" rx="40" fill="rgba(255,255,255,0.06)" stroke="rgba(255,255,255,0.12)" stroke-width="2" />
  <rect x="180" y="180" width="360" height="144" rx="32" fill="#0C3063" />
  <rect x="180" y="360" width="720" height="98" rx="28" fill="#0C2A57" />
  <rect x="180" y="496" width="480" height="116" rx="30" fill="#0E3E74" />
  <rect x="180" y="630" width="420" height="78" rx="24" fill="#0A294F" />
  <rect x="580" y="180" width="440" height="110" rx="28" fill="#103969" />
  <rect x="612" y="210" width="182" height="18" rx="9" fill="#7DB8FF" />
  <rect x="612" y="245" width="240" height="14" rx="7" fill="#4D8CFF" />
  <rect x="612" y="276" width="110" height="14" rx="7" fill="#69A7FF" />
  <rect x="620" y="314" width="260" height="92" rx="24" fill="#0A2F53" />
  <rect x="660" y="346" width="200" height="16" rx="8" fill="#7AB8FF" />
  <rect x="660" y="382" width="130" height="16" rx="8" fill="#4A91FF" />
  <rect x="660" y="418" width="90" height="16" rx="8" fill="#477FE0" />
  <rect x="820" y="560" width="260" height="142" rx="30" fill="#0B2C57" />
  <circle cx="880" cy="610" r="26" fill="#9FCBFF" />
  <circle cx="940" cy="650" r="18" fill="#B9E0FF" />
  <rect x="840" y="710" width="180" height="12" rx="6" fill="#4B92FF" />
  <rect x="560" y="660" width="220" height="16" rx="8" fill="#0E3A6D" />
  <rect x="560" y="694" width="180" height="16" rx="8" fill="#1F5FE0" />
  <rect x="180" y="360" width="120" height="22" rx="11" fill="#7AB9FF" />
  <rect x="180" y="404" width="180" height="16" rx="8" fill="#6DAEFF" />
  <rect x="180" y="436" width="120" height="16" rx="8" fill="#5A8BFF" />
  <rect x="180" y="500" width="100" height="20" rx="10" fill="#73BEFF" />
  <rect x="180" y="540" width="160" height="16" rx="8" fill="#7BB8FF" />
  <rect x="180" y="580" width="130" height="16" rx="8" fill="#5B97FF" />
</svg>
